<svg width="1217" height="324" viewBox="0 0 1217 324" fill="none" xmlns="http://www.w3.org/2000/svg">
<path d="M341.6 231.6L340 114.6C340 106.067 357.267 101.8 391.8 101.8C408.067 101.8 421.667 104.867 432.6 111C443.667 117.133 449.2 125.933 449.2 137.4C449.2 145 446.267 152.2 440.4 159C434.533 165.8 427.933 170.133 420.6 172C429.8 174.8 437.733 178.867 444.4 184.2C451.2 189.533 454.6 196.467 454.6 205C454.6 213.533 450.933 221.067 443.6 227.6C429.467 240 407.733 246.2 378.4 246.2C353.867 246.2 341.6 241.333 341.6 231.6ZM354.6 172.6C362.867 169.4 372 167.8 382 167.8C386.667 167.8 391.333 167.8 396 167.8C403.067 167.8 411.6 164.667 421.6 158.4C431.733 152 436.8 145.933 436.8 140.2C436.8 131.667 431.467 124.933 420.8 120C410.133 114.933 398.333 112.4 385.4 112.4C372.467 112.4 362 113.867 354 116.8C354 119.2 354 122.733 354 127.4C354 131.933 354.067 139.533 354.2 150.2C354.467 160.733 354.6 168.2 354.6 172.6ZM440 205C440 193.4 427.467 184.933 402.4 179.6C389.6 183.333 377.467 185.2 366 185.2C362.267 185.2 358.6 185 355 184.6C355.4 200.467 355.6 216.6 355.6 233C363.333 234.733 371.133 235.6 379 235.6C387 235.6 394.067 235.133 400.2 234.2C406.467 233.133 412.667 231.533 418.8 229.4C425.067 227.267 430.133 224.067 434 219.8C438 215.533 440 210.6 440 205ZM538.258 186.4L537.258 209.4C537.258 221 538.591 228.8 541.258 232.8C542.858 235.467 545.058 236.8 547.858 236.8C548.658 236.8 549.791 236.6 551.258 236.2C554.058 235.4 556.391 235.8 558.258 237.4C557.324 242.067 552.658 244.4 544.258 244.4C538.524 244.4 534.724 242 532.858 237.2C531.391 233.6 530.324 229.133 529.658 223.8C528.991 218.333 528.458 214.6 528.058 212.6C519.391 229.133 510.991 239.2 502.858 242.8C498.724 244.667 493.924 245.6 488.458 245.6C482.991 245.6 478.724 243 475.658 237.8C472.724 232.467 471.258 224.733 471.258 214.6C471.258 204.467 472.924 193.867 476.258 182.8C479.591 171.6 484.458 162.2 490.858 154.6C497.258 146.867 504.258 143 511.858 143C522.791 143 530.058 147.533 533.658 156.6C536.724 164.333 538.258 174.267 538.258 186.4ZM489.258 180C487.391 187.2 485.991 194.067 485.058 200.6C484.124 207 483.658 212.733 483.658 217.8C483.658 222.733 484.658 227 486.658 230.6C488.791 234.2 491.524 236 494.858 236C502.058 236 508.991 229.2 515.658 215.6C522.324 202 525.658 189.333 525.658 177.6C525.658 170 523.658 163.733 519.658 158.8C516.991 155.6 513.458 154 509.058 154C504.791 154 500.858 156.533 497.258 161.6C493.791 166.533 491.124 172.667 489.258 180ZM581.102 95.6C581.235 104.933 581.302 111.933 581.302 116.6C581.302 121.133 581.235 125.667 581.102 130.2C581.102 134.733 580.902 143.533 580.502 156.6C580.102 169.533 579.835 179.8 579.702 187.4C584.768 183.933 590.835 178.6 597.902 171.4C604.968 164.067 611.368 157.8 617.102 152.6C626.168 144.467 632.635 142 636.502 145.2C637.968 146.4 638.435 147.533 637.902 148.6C636.568 151.4 633.502 154.8 628.702 158.8C624.035 162.8 618.502 167.333 612.102 172.4C605.702 177.467 600.635 182.133 596.902 186.4C606.635 187.733 614.435 193.2 620.302 202.8C622.835 207.2 625.302 211.6 627.702 216C633.835 227.6 640.502 235.467 647.702 239.6C645.035 242.267 641.968 243.6 638.502 243.6C635.035 243.6 631.568 241.933 628.102 238.6C624.768 235.267 621.835 231.2 619.302 226.4C616.902 221.6 614.435 216.8 611.902 212C606.168 200.4 599.502 194.6 591.902 194.6C588.302 194.6 585.235 195.8 582.702 198.2C580.168 200.467 578.902 202.867 578.902 205.4C578.902 221.4 578.635 233.267 578.102 241C576.235 243.533 574.235 244.8 572.102 244.8C571.435 244.8 570.702 244.667 569.902 244.4C566.968 243.2 565.502 240.733 565.502 237C565.635 233.267 566.035 221.933 566.702 203C568.168 154.6 568.902 123.667 568.902 110.2C568.902 103.933 569.502 99.7333 570.702 97.6C572.035 95.4667 573.568 94.4 575.302 94.4C577.168 94.4 579.102 94.8 581.102 95.6ZM666.117 203.4C665.851 206.067 665.717 207.867 665.717 208.8C665.717 216.8 668.117 223 672.917 227.4C677.851 231.8 683.651 234 690.317 234C696.984 234 702.384 233.067 706.517 231.2C710.784 229.333 713.851 227.333 715.717 225.2C720.517 219.2 724.917 216.2 728.917 216.2C730.384 216.2 732.117 216.6 734.117 217.4C732.784 223.933 727.717 229.933 718.917 235.4C710.251 240.733 699.317 243.4 686.117 243.4C676.784 243.4 668.717 240.467 661.917 234.6C655.251 228.6 651.917 220.467 651.917 210.2C651.917 199.933 653.917 190 657.917 180.4C662.051 170.667 667.917 162.4 675.517 155.6C683.251 148.667 691.051 145.2 698.917 145.2C706.917 145.2 713.317 146.867 718.117 150.2C723.051 153.4 725.517 158.133 725.517 164.4C725.517 176 720.317 185.6 709.917 193.2C699.651 200.667 688.717 204.4 677.117 204.4C674.051 204.4 670.384 204.067 666.117 203.4ZM681.317 196.8C687.584 196.8 693.184 194.8 698.117 190.8C703.051 186.8 706.517 182.6 708.517 178.2C710.651 173.8 711.717 169.8 711.717 166.2C711.717 162.6 710.317 159.467 707.517 156.8C704.717 154 701.451 152.6 697.717 152.6C691.051 152.6 684.851 157.2 679.117 166.4C673.517 175.6 669.517 185.133 667.117 195C672.984 196.2 677.717 196.8 681.317 196.8ZM770.048 224.4L770.648 235.8C770.648 238.733 769.782 240.8 768.048 242C766.448 243.067 764.782 243.6 763.048 243.6C761.448 243.6 759.782 243.333 758.048 242.8C755.115 227.333 752.848 208.067 751.248 185C749.782 161.933 748.915 148.867 748.648 145.8C750.648 143.933 752.715 143 754.848 143C757.115 143 759.115 143.267 760.848 143.8C761.382 147.667 761.782 156.2 762.048 169.4C762.315 182.6 762.648 190.867 763.048 194.2C764.915 183 768.248 172.533 773.048 162.8C775.715 157.333 779.182 153 783.448 149.8C787.848 146.467 792.515 144.8 797.448 144.8C802.515 144.8 807.115 147.067 811.248 151.6C815.515 156 817.648 160 817.648 163.6C817.648 164.933 816.848 166 815.248 166.8C813.648 167.467 811.848 167.8 809.848 167.8C807.982 167.8 806.515 167.067 805.448 165.6C804.382 164.133 803.648 162.533 803.248 160.8C802.848 158.933 801.982 157.267 800.648 155.8C799.315 154.333 797.515 153.6 795.248 153.6C789.248 153.6 784.115 159 779.848 169.8C773.315 185.933 770.048 204.133 770.048 224.4ZM877.936 160C877.936 150.4 881.003 145.6 887.136 145.6C888.336 145.6 889.536 145.733 890.736 146C890.736 147.6 890.736 151.933 890.736 159C890.736 166.067 891.669 180.2 893.536 201.4C895.403 222.6 896.336 238.467 896.336 249C896.336 265.8 893.403 277.4 887.536 283.8C881.669 290.2 871.669 293.4 857.536 293.4C843.536 293.4 830.336 288.867 817.936 279.8C820.336 276.867 823.469 275.4 827.336 275.4C828.803 275.533 831.136 276.533 834.336 278.4C843.803 284 851.669 286.8 857.936 286.8C867.269 286.8 873.869 283.867 877.736 278C881.603 272.133 883.536 262.267 883.536 248.4C883.536 245.067 883.203 233.067 882.536 212.4C882.403 212.8 881.936 214.533 881.136 217.6C880.336 220.533 879.736 222.467 879.336 223.4C878.936 224.333 878.203 226.067 877.136 228.6C876.203 231.133 875.203 232.933 874.136 234C873.069 235.067 871.669 236.333 869.936 237.8C867.003 240.467 863.269 241.8 858.736 241.8C854.336 241.8 850.803 241.2 848.136 240C845.469 238.8 843.203 236.933 841.336 234.4C839.603 231.867 838.003 229.2 836.536 226.4C835.203 223.6 834.136 220.067 833.336 215.8C832.536 211.4 831.869 207.4 831.336 203.8C830.936 200.2 830.603 195.8 830.336 190.6C830.203 185.4 830.069 181.067 829.936 177.6C829.936 174.133 829.936 169.733 829.936 164.4V152.4C831.269 150.133 833.669 149 837.136 149C841.936 149 844.336 150.733 844.336 154.2L843.136 173.6C843.136 190.533 844.936 205.133 848.536 217.4C852.136 229.667 855.869 235.8 859.736 235.8C862.669 235.8 865.269 234.2 867.536 231C869.803 227.8 871.536 223.333 872.736 217.6C873.936 211.733 874.936 206.2 875.736 201C876.536 195.8 877.069 189.733 877.336 182.8C877.736 172.267 877.936 164.667 877.936 160ZM923.045 179.6C923.045 158.8 922.179 140.467 920.445 124.6C920.445 120.467 922.179 116.867 925.645 113.8C929.112 110.733 933.712 108.4 939.445 106.8C950.912 103.867 963.512 102.4 977.245 102.4C994.979 102.4 1008.91 106.333 1019.05 114.2C1029.31 121.933 1034.45 133.867 1034.45 150C1034.45 166.133 1027.91 179.067 1014.85 188.8C1001.78 198.533 985.845 203.4 967.045 203.4C957.445 203.4 947.379 201.4 936.845 197.4C936.179 203.8 935.845 212.467 935.845 223.4L936.045 233.2C936.045 236.4 935.979 239.733 935.845 243.2C935.179 244.133 934.445 244.8 933.645 245.2C932.845 245.6 932.245 245.867 931.845 246C931.579 246.267 931.112 246.467 930.445 246.6C929.779 246.733 929.312 246.8 929.045 246.8C928.245 247.067 927.312 247.2 926.245 247.2H922.845C922.579 237.2 922.445 228.2 922.445 220.2L923.045 179.6ZM936.445 183C946.179 189.533 957.845 192.8 971.445 192.8C985.045 192.667 996.512 188.467 1005.85 180.2C1015.18 171.8 1019.85 161.533 1019.85 149.4C1019.85 137.267 1015.05 128.2 1005.45 122.2C995.845 116.2 984.312 113.2 970.845 113.2C957.512 113.2 945.712 116.267 935.445 122.4C936.112 131.067 936.445 151.267 936.445 183ZM1071.03 224.4L1071.63 235.8C1071.63 238.733 1070.76 240.8 1069.02 242C1067.43 243.067 1065.76 243.6 1064.03 243.6C1062.43 243.6 1060.76 243.333 1059.03 242.8C1056.09 227.333 1053.83 208.067 1052.23 185C1050.76 161.933 1049.89 148.867 1049.63 145.8C1051.63 143.933 1053.69 143 1055.83 143C1058.09 143 1060.09 143.267 1061.83 143.8C1062.36 147.667 1062.76 156.2 1063.03 169.4C1063.29 182.6 1063.63 190.867 1064.03 194.2C1065.89 183 1069.23 172.533 1074.03 162.8C1076.69 157.333 1080.16 153 1084.43 149.8C1088.83 146.467 1093.49 144.8 1098.42 144.8C1103.49 144.8 1108.09 147.067 1112.23 151.6C1116.49 156 1118.63 160 1118.63 163.6C1118.63 164.933 1117.83 166 1116.23 166.8C1114.63 167.467 1112.83 167.8 1110.83 167.8C1108.96 167.8 1107.49 167.067 1106.43 165.6C1105.36 164.133 1104.63 162.533 1104.23 160.8C1103.83 158.933 1102.96 157.267 1101.63 155.8C1100.29 154.333 1098.49 153.6 1096.23 153.6C1090.23 153.6 1085.09 159 1080.83 169.8C1074.29 185.933 1071.03 204.133 1071.03 224.4ZM1137.13 161C1143.93 150.6 1153.73 145.4 1166.53 145.4C1179.33 145.4 1189.53 150.6 1197.13 161C1204.86 171.4 1208.73 183.267 1208.73 196.6C1208.73 209.8 1204.53 221 1196.13 230.2C1187.73 239.4 1177.06 244 1164.13 244C1151.2 244 1141.8 240.4 1135.93 233.2C1130.06 225.867 1127.13 215.6 1127.13 202.4C1127.13 185.2 1130.46 171.4 1137.13 161ZM1145.93 171.6C1144.2 176.8 1142.86 182 1141.93 187.2C1141.13 192.4 1140.73 197.267 1140.73 201.8C1140.73 206.2 1141.06 210.267 1141.73 214C1142.4 217.6 1143.53 221.2 1145.13 224.8C1146.73 228.267 1149.13 231.067 1152.33 233.2C1155.53 235.2 1159.33 236.2 1163.73 236.2C1172.66 236.2 1180.13 232.533 1186.13 225.2C1192.26 217.867 1195.33 209 1195.33 198.6C1195.33 188.2 1192.53 178.133 1186.93 168.4C1181.46 158.533 1174.73 153.6 1166.73 153.6C1161.93 153.6 1157.73 155.267 1154.13 158.6C1150.53 161.933 1147.8 166.267 1145.93 171.6Z" fill="black"/>
<path d="M128.165 21.4611C146.57 8.8711 171.204 10.5266 187.759 25.4661V25.4661C196.629 33.4703 208.152 37.9008 220.099 37.9008H225.455C247.923 37.9008 267.517 53.1709 273.005 74.9584V74.9584C274.996 82.8614 278.926 90.1436 284.438 96.1465L291.334 103.656C307.878 121.672 310.941 148.291 298.923 169.594L297.514 172.091C291.727 182.35 289.844 194.355 292.214 205.892V205.892C296.698 227.728 285.819 249.828 265.778 259.589L261.601 261.624C253.676 265.484 246.8 271.199 241.556 278.284L239.242 281.41C224.623 301.158 199.301 309.788 175.664 303.078L174.535 302.757C164.731 299.974 154.346 299.974 144.543 302.757L141.061 303.746C119.265 309.934 96.0263 300.748 84.3525 281.329V281.329C78.9464 272.337 70.8572 265.265 61.2227 261.109L54.3622 258.149C33.9896 249.361 22.7468 227.327 27.5876 205.674V205.674C30.1276 194.313 28.2825 182.411 22.4218 172.352L20.0181 168.227C7.94141 147.499 9.78079 121.492 24.6546 102.671L31.0501 94.5782C35.0184 89.5567 38.1806 83.9479 40.4232 77.9535L43.6001 69.4617C50.7011 50.4804 68.8384 37.9008 89.1044 37.9008V37.9008C98.8937 37.9008 108.455 34.9436 116.535 29.4166L128.165 21.4611Z" fill="#98521A"/>
<path d="M134.633 47.3464C149.515 37.1696 169.431 38.5079 182.818 50.5843V50.5843C189.99 57.0547 199.307 60.6361 208.967 60.6361H213.31C231.471 60.6361 247.309 72.9783 251.746 90.5888V90.5888C253.356 96.9782 256.534 102.865 260.991 107.718L266.568 113.789C279.944 128.35 282.42 149.868 272.703 167.087L271.564 169.105C266.884 177.398 265.362 187.102 267.278 196.429V196.429C270.904 214.078 262.11 231.941 245.911 239.829L242.523 241.478C236.117 244.598 230.558 249.217 226.318 254.943L224.45 257.465C212.627 273.432 192.151 280.41 173.037 274.985L172.125 274.726C164.198 272.476 155.802 272.476 147.875 274.726L145.051 275.528C127.431 280.528 108.646 273.103 99.2067 257.407V257.407C94.8348 250.137 88.2939 244.42 80.5041 241.061L74.948 238.665C58.4806 231.564 49.3927 213.753 53.3065 196.252V196.252C55.3604 187.068 53.8685 177.447 49.1297 169.316L47.1863 165.982C37.4218 149.228 38.9089 128.205 50.9345 112.992L56.1058 106.451C59.3149 102.391 61.8723 97.8566 63.686 93.0101L66.2511 86.1558C71.9948 70.8075 86.6615 60.6361 103.049 60.6361V60.6361C110.964 60.6361 118.694 58.2458 125.228 53.7782L134.633 47.3464Z" fill="#E18943"/>
</svg>
